<?xml version="1.0" encoding="UTF-8" standalone="no"?>
<!-- Created with Inkscape (http://www.inkscape.org/) -->

<svg
   version="1.1"
   id="svg1"
   width="2000"
   height="2000"
   viewBox="0 0 2000 2000"
   xml:space="preserve"
   xmlns="http://www.w3.org/2000/svg"
   xmlns:svg="http://www.w3.org/2000/svg"><defs
     id="defs1" /><g
     id="g1"><path
       style="fill:#1a1a1a;stroke:none"
       d="m 188.94331,800.79527 h 55 c 7.70784,0 18.39182,1.9313 25.77237,-0.3179 4.46399,-1.3603 5.56085,-10.8978 7.54785,-14.682 4.9404,-9.409 12.4368,-17.3608 21.67978,-22.6629 30.33105,-17.3987 78.3009,-15.7175 99.40201,15.6628 9.315,13.8529 10.59799,30.8326 10.59799,47 -39.47662,0 -80.88281,-3.1733 -120,2.4282 -21.00119,3.0073 -41.40675,7.6608 -60,18.2917 -51.69582,29.5575 -65.99957,105.2843 -22.96065,149.26564 53.47933,54.64999 173.05519,45.54929 206.96065,-26.98544 h 1 l 7,53.00003 h 73 V 847.79527 c 0,-44.7754 -0.24268,-89.7853 -34.01465,-123.996 -49.84509,-50.4928 -147.39581,-53.8486 -206.98535,-19.8535 -34.27229,19.5519 -63.65848,55.5978 -64,96.8495 m 438,-49 h -1 l -8,-61 h -76 v 331.00013 h 64 c 4.52588,0 17.91748,2.2537 20.97223,-1.6034 2.57153,-3.2468 1.02777,-11.4675 1.02777,-15.3967 v -40.99993 -71 c 0,-39.001 -1.33112,-83.6968 37,-106.5471 7.64142,-4.5552 16.40137,-7.2245 25,-9.3234 19.19122,-4.6841 38.40472,-4.1295 58,-4.1295 v -90.0001 c -46.91095,0 -101.27899,23.2927 -121,69 m 455.99989,166.0001 h -58 c -8.0534,0 -19.0583,-1.9683 -26.78696,0.3179 -4.6304,1.3697 -7.7215,10.0759 -10.6774,13.6821 -7.0411,8.5898 -16.2275,16.6188 -26.5355,20.9853 -55.29459,23.4231 -117.42886,-16.0933 -120.00003,-75.9854 h 250.99989 c 3.705,-19.9563 2.2776,-43.0625 -1.0811,-63 -3.2696,-19.4092 -10.197,-38.1319 -20.3186,-55 -44.9635,-74.9332 -151.86057,-97.7268 -227.60019,-56.6913 -44.69672,24.2167 -75.18103,68.7167 -83.56482,118.6914 -13.16327,78.4648 16.43121,161.5856 93.56482,194.57253 69.60522,29.7672 157.05069,14.4563 204.42349,-46.57253 10.9696,-14.1318 22.911,-32.9525 25.5764,-51 m 132.0001,-172 h -1 l -6,-55 h -76.0001 v 331.00003 h 86.0001 V 883.79537 c 0,-29.3441 -2.3484,-58.9861 11.2477,-86 21.3578,-42.4358 90.0719,-61.4565 123.2878,-21.0001 19.7051,24.0004 18.4645,56.8036 18.4645,86 v 159.00013 h 85 V 860.79537 c 0,-42.9702 0.7122,-87.0586 -22.8141,-125.0001 -44.98,-72.5406 -182.2131,-73.3739 -218.1859,10.0001 m 287,54.9999 h 84 c 9.9855,-48.2494 77.7129,-63.028 114,-34.4822 19.5387,15.3704 22,36.3379 22,59.4822 -38.8987,0 -78.2963,-1.5905 -117,2.1698 -21.3079,2.0703 -43.3434,7.5196 -62,18.2585 -14.0907,8.1106 -25.7983,18.9558 -34.655,32.5718 -27.4777,42.2434 -13.3134,104.0101 28.655,130.90973 32.7295,20.9779 79.8005,24.9948 117,15.9607 27.3096,-6.6324 63.5115,-28.02209 72,-56.87043 h 1 l 8,53.00003 h 73 V 851.79527 c 0,-40.0885 1.0574,-80.8325 -23.4282,-115 -51.9567,-72.501 -185.497,-71.0562 -246.5679,-11.9607 -22.6913,21.9573 -29.0087,46.6639 -36.0039,75.9607 m -495.0001,23.0001 H 841.94331 c 5.30145,-25.6843 17.27545,-47.8299 41,-60.6914 50.64752,-27.4568 121.31249,-1.9094 123.99989,60.6914 m -599.99989,55.9999 c -4.92227,19.025 -8.9971,36.6739 -20.74615,53.0001 -21.39655,29.7319 -77.83817,44.9419 -106.1605,14.9846 -21.92251,-23.188 -3.51321,-58.1119 23.90665,-65.0887 11.20203,-2.8505 22.53094,-2.896 34,-2.896 h 69 m 1312.99999,0 c -0.6276,14.5748 -6.6392,29.2077 -13.2585,42.0001 -19.1313,36.9723 -81.0837,60.6494 -113.6365,24.9961 -22.2422,-24.3609 -0.6057,-58.4172 26.895,-64.5709 11.9551,-2.6752 23.8313,-2.4252 36,-2.4252 h 64 M 172.94331,1320.7953 c 0.5592,12.9905 4.99077,26.4471 10.75308,38 34.69644,69.5629 125.84314,85.7512 195.24692,68.3735 41.4451,-10.3774 78.68515,-40.457 85.56094,-84.3735 1.60202,-10.2322 0.72556,-19.7791 0.42517,-30 -1.97647,-67.2529 -87.72918,-78.501 -137.98611,-91.1265 -20.70596,-5.2019 -73.33316,-17.2981 -55.96448,-48.8735 14.22772,-25.8652 63.66492,-26.051 84.96372,-9.9568 5.26071,3.9752 9.74875,9.0455 12.72375,14.9568 1.71164,3.4009 2.22656,9.4756 6.41049,10.6821 7.24558,2.0896 17.33628,0.3179 24.86652,0.3179 h 53 c -0.79236,-38.3818 -30.92215,-74.8474 -65,-89.4213 -61.29861,-26.2152 -157.96408,-18.0185 -192.69058,46.4213 -6.55405,12.1619 -10.30409,26.1945 -10.30942,40 -0.004,9.5381 -0.083,18.802 2.88658,28 16.82636,52.1179 82.30998,62.2316 128.11342,73.6265 17.69812,4.4029 46.67111,7.6866 58.21143,23.3881 13.16977,17.9185 2.41259,41.6653 -16.21143,50.4924 -22.45361,10.642 -56.14572,7.6396 -76,-7.1729 -7.14725,-5.3323 -12.98587,-11.6417 -17.5463,-19.3341 -2.05303,-3.463 -3.06198,-10.551 -6.18133,-12.9722 -4.47,-3.4697 -17.76343,-1.0278 -23.27237,-1.0278 h -62 m 808.00003,-116 h 54.99986 c 7.708,0 18.3917,1.9314 25.7723,-0.3179 4.4859,-1.367 6.0263,-11.7848 7.9877,-15.6821 4.7245,-9.3877 12.1329,-16.9174 21.24,-22.1273 30.9633,-17.7135 79.4741,-15.0448 100.301,17.1273 8.7894,13.5773 9.6991,30.3071 9.6991,46 -49.9751,0 -103.4233,-5.4346 -152.0001,8.4275 -23.1962,6.6194 -45.0146,19.786 -59.25376,39.5725 -26.572,36.9238 -21.543,91.7925 10.53926,123.7137 37.26,37.0729 114.8279,43.078 159.7145,17.4136 20.3028,-11.6083 31.5804,-28.711 46.0001,-46.1273 l 5.1304,38 3.4583,13.9722 19.4113,1.0278 h 52 v -178 c 0,-42.1139 -0.4902,-85.6841 -32.0146,-118 -49.6572,-50.9038 -141.3415,-56.1442 -202.9855,-25.2468 -37.4468,18.769 -69.63746,56.4702 -69.99986,100.2468 m 437.99996,-64 c -0.4875,-11.321 -3.98,-22.8994 -6.1998,-34 -0.6548,-3.2744 -0.7277,-9.741 -3.5386,-11.9722 -3.3772,-2.6808 -12.1582,-1.0278 -16.2616,-1.0278 h -42 c -3.8608,0 -14.3364,-1.8691 -16.3966,2.3179 -4.4309,9.0049 -0.6034,28.6252 -0.6034,38.6821 v 95 342 h 86 v -191 c 51.7919,72.0338 166.2721,66.6427 224.9607,5.9961 79.6291,-82.2858 58.6019,-233.595 -44.9607,-285.2429 -27.0002,-13.4655 -61.1091,-18.4541 -91,-14.1737 -26.5295,3.7989 -48.7762,13.9666 -69,31.7068 -7.5642,6.6351 -13.2759,15.4659 -21,21.7137 m -952.99999,-47 c 4.12448,30.6035 17.40396,62.4092 26.28009,92 15.46368,51.552 30.20087,103.3387 45.29553,155 6.03455,20.6531 11.67292,41.4609 18.08332,62 1.74078,5.5776 2.84155,18.4546 7.85107,21.9722 4.06824,2.8567 13.69525,1.0278 18.48999,1.0278 h 49 c 4.5788,0 16.6087,2.1393 19.86108,-1.6034 3.74469,-4.3092 4.57502,-13.9698 6.13892,-19.3966 l 13.70911,-48 c 11.29754,-39.3159 22.49621,-78.6609 33.71222,-118 5.55676,-19.4897 13.87213,-39.9174 16.57867,-60 h 1 c 14.11163,61.5537 34.84857,122.3 52.29089,183 l 13.13044,46 c 1.25531,4.403 2.17297,14.1917 6.09179,16.9722 4.0365,2.8641 13.71588,1.0278 18.48688,1.0278 h 49 c 4.70819,0 16.47986,2.1321 19.91437,-1.6034 4.88086,-5.3085 6.26666,-18.5133 8.22607,-25.3966 5.79706,-20.3647 11.66138,-40.7616 17.88428,-61 16.43713,-53.4578 31.71405,-107.3162 47.39961,-161 7.6717,-26.256 21.3499,-55.7517 23.5757,-83 h -61.00003 l -22.27234,1.0278 -5.30328,16.9722 -10.79859,45 -42.62579,174 c -7.66791,-17.8171 -11.10211,-38.3434 -16.42133,-57 -11.01184,-38.623 -21.50048,-77.3955 -32.57867,-116 -4.29565,-14.9692 -8.30841,-30.0223 -12.57867,-45 -1.3899,-4.8749 -2.05127,-13.5879 -5.51008,-17.3966 -3.29431,-3.6276 -14.39184,-1.6034 -18.91125,-1.6034 h -55 c -5.02423,0 -17.45508,-2.2819 -20.72144,2.3179 -3.72662,5.2479 -4.50537,14.5291 -6.27856,20.6821 -4.69659,16.2971 -9.02509,32.6995 -13.70911,49 -15.72827,54.7349 -34.75213,110.2461 -46.29089,166 l -16.88428,-69 -24.90582,-103 -11.55865,-48 -5.21534,-16.9722 -22.43591,-1.0278 h -61 m 1042.99999,67.2855 c 10.4432,-1.2154 23.0746,1.1492 33,4.3842 90.783,29.5892 83.9551,182.3276 -16,192.1606 -28.6807,2.8213 -57.5449,-3.4814 -78.9854,-23.9198 -39.6217,-37.7699 -38.8511,-113.0978 1.9861,-149.7369 17.4528,-15.6587 37.5121,-20.271 59.9993,-22.8881 m -310,122.7145 c -4.9912,19.2925 -9.4934,36.2994 -21.0255,53 -20.5958,29.8263 -77.9062,44.156 -105.7894,14.9066 -22.5686,-23.6743 -3.2913,-57.649 23.8148,-65.1612 11.1345,-3.0859 22.5698,-2.7454 34,-2.7454 z"
       id="path1" /><ellipse
       style="fill:#ff751f;stroke:#ff751f;stroke-width:1.13738;stroke-opacity:1;fill-opacity:1"
       id="path2"
       cx="1772.8514"
       cy="1379.8828"
       rx="53.381836"
       ry="50.256832" /></g></svg>
