<?xml version="1.0" encoding="UTF-8" standalone="no"?>
<!-- Created with Inkscape (http://www.inkscape.org/) -->

<svg
   version="1.1"
   id="svg1"
   width="2000"
   height="2000"
   viewBox="0 0 2000 2000"
   sodipodi:docname="icon_white_on_black.svg"
   inkscape:version="1.4 (e7c3feb1, 2024-10-09)"
   xmlns:inkscape="http://www.inkscape.org/namespaces/inkscape"
   xmlns:sodipodi="http://sodipodi.sourceforge.net/DTD/sodipodi-0.dtd"
   xmlns="http://www.w3.org/2000/svg"
   xmlns:svg="http://www.w3.org/2000/svg">
  <defs
     id="defs1" />
  <sodipodi:namedview
     id="namedview1"
     pagecolor="#ffffff"
     bordercolor="#000000"
     borderopacity="0.25"
     inkscape:showpageshadow="2"
     inkscape:pageopacity="0.0"
     inkscape:pagecheckerboard="0"
     inkscape:deskcolor="#d1d1d1"
     inkscape:zoom="0.22"
     inkscape:cx="965.90909"
     inkscape:cy="1000"
     inkscape:window-width="2560"
     inkscape:window-height="1305"
     inkscape:window-x="1800"
     inkscape:window-y="30"
     inkscape:window-maximized="1"
     inkscape:current-layer="g1" />
  <g
     inkscape:groupmode="layer"
     inkscape:label="Image"
     id="g1">
    <path
       style="fill:#1a1a1a"
       d="M 0,1000 V 3.6363637e-7 H 999.99999 2000 V 1000 2000 H 999.99999 0 Z m 1409.5,545.9708 c 63.5378,-3.7744 114.4744,-23.7778 149,-58.5141 32.0586,-32.2543 46.1703,-71.8125 42.5583,-119.2997 -2.7725,-36.4486 -11.41,-56.6667 -33.2048,-77.7235 -28.1325,-27.1798 -61.4819,-40.3157 -168.3535,-66.3126 -58.8037,-14.3043 -88.2727,-27.0653 -97.269,-42.1209 -4.4395,-7.4297 -5.5711,-12.1731 -4.8853,-20.4788 1.1619,-14.0705 11.5442,-28.4156 26.2079,-36.2109 21.4071,-11.3802 62.5023,-13.5252 89.9464,-4.6949 15.6237,5.0271 27.6502,13.7323 35.4382,25.6516 3.6769,5.6273 8.0801,16.2649 9.5132,22.983 l 0.5867,2.75 h 61.981 c 34.0895,0 61.9803,-0.3375 61.9795,-0.75 -7e-4,-0.4125 -0.6361,-4.35 -1.412,-8.75 -8.1356,-46.137 -31.0941,-84.1405 -66.1803,-109.5493 -37.1173,-26.8796 -81.3439,-39.0854 -141.5183,-39.0567 -65.4955,0.031 -113.3761,14.7846 -150.7841,46.4609 -34.6965,29.3801 -53.1202,68.4037 -53.098,112.4675 0.018,35.7061 9.9027,58.7531 35.6496,83.1199 10.8459,10.2645 21.1159,17.3875 36.479,25.3006 29.7305,15.3134 60.2987,24.9665 132.3655,41.7997 36.5366,8.5341 66.6024,18.456 76.8948,25.3759 12.0388,8.094 17.5556,18.7216 18.3692,35.3865 0.6441,13.1944 -1.2294,20.5958 -7.7248,30.5164 -9.7333,14.866 -23.8291,23.7338 -45.0392,28.3348 -6.7997,1.475 -12.7008,1.8344 -29.5,1.797 -23.2648,-0.052 -31.4742,-1.3332 -47.0681,-7.3469 -23.9826,-9.2486 -45.3931,-30.2113 -52.9016,-51.7949 -1.4946,-4.2963 -3.1157,-8.8239 -3.6025,-10.0614 l -0.8849,-2.25 h -65.6506 -65.6506 l 0.6853,6.25 c 0.9465,8.6317 5.1527,25.4772 9.0548,36.2637 24.4374,67.5523 90.3906,114.9607 177.3195,127.4607 25.478,3.6636 45.3146,4.5043 70.6987,2.9964 z m -822.1933,-92.4625 c 16.1065,-4.1952 26.611,-14.139 31.0999,-29.4398 3.7778,-12.8772 -0.1331,-28.288 -9.6442,-38.0022 -2.3443,-2.3944 -31.1499,-24.5418 -64.0124,-49.2164 -32.8625,-24.6746 -59.75,-45.2506 -59.75,-45.7246 0,-0.4739 27.6415,-21.6041 61.4256,-46.956 42.9315,-32.2162 62.4911,-47.4897 64.9646,-50.7292 9.7072,-12.7132 11.0327,-31.6264 3.1478,-44.9154 -3.8222,-6.4418 -11.369,-13.3162 -18.4407,-16.7976 -6.1397,-3.0226 -7.222,-3.2258 -17.0762,-3.2069 -9.1927,0.018 -11.2215,0.3467 -16.0691,2.6057 -7.6471,3.5636 -172.1541,127.0623 -178.1482,133.7394 -6.9365,7.727 -9.2419,14.3522 -9.276,26.6567 -0.026,9.3879 0.1855,10.4552 3.3433,16.8686 1.854,3.7656 5.229,8.664 7.5,10.8852 7.004,6.851 167.7213,126.9296 174.6897,130.518 5.5499,2.858 11.6309,4.4861 18.9791,5.0814 0.847,0.069 4.1171,-0.5465 7.2668,-1.3669 z M 781,1330.1764 c 16.9564,-4.4565 28.7948,-18.9176 29.8075,-36.411 0.5178,-8.9443 -0.8073,-14.9653 -4.9127,-22.3236 -5.7619,-10.3273 -16.8676,-18.2131 -28.7812,-20.4365 -7.1237,-1.3295 -168.4501,-1.348 -176.5582,-0.02 -17.0892,2.7985 -30.9613,16.9251 -33.6634,34.281 -3.2424,20.8265 11.3623,41.5845 32.108,45.636 2.475,0.4834 42.975,0.9022 90,0.9308 77.5355,0.047 86.1055,-0.1072 92,-1.6564 z m 324.2008,0.6992 c 32.7064,-6.9396 44.0235,-47.3114 19.4815,-69.4967 -6.1777,-5.5844 -13.4147,-9.1125 -21.3615,-10.414 -7.8091,-1.279 -167.9481,-1.26 -175.7696,0.021 -26.9946,4.4205 -42.3652,34.3504 -29.989,58.3952 3.419,6.6425 10.6961,14.1476 16.7024,17.2258 10.4347,5.3476 8.7192,5.2566 100.4362,5.3275 59.511,0.046 86.7986,-0.2732 90.5,-1.0586 z M 637.9992,1050.5445 c 32.5184,-4.8481 55.8087,-14.3527 79.4667,-32.4296 18.497,-14.1335 37.6328,-35.30915 47.5128,-52.57752 1.7931,-3.13415 3.5834,-5.32471 3.9784,-4.86791 0.395,0.45679 3.3569,18.71803 6.5821,40.58053 l 5.864,39.75 h 55.8231 55.8231 l -0.3153,-171.75 c -0.3438,-187.24029 0,-175.42416 -5.8997,-200.75 -12.7755,-54.81079 -46.7358,-96.69411 -99.3344,-122.50943 -35.9992,-17.66838 -76.5294,-25.95851 -127,-25.97684 -63.1789,-0.0229 -114.4829,14.77503 -157.9318,45.55343 -12.385,8.77327 -31.4643,26.81972 -40.7707,38.56342 -13.5322,17.07646 -24.6823,38.44662 -30.7943,59.02051 C 428.1026,672.91476 424,693.69874 424,698.62953 V 701 h 63.9615 63.9615 l 1.0948,-4.25 c 4.1103,-15.95649 10.0181,-27.15728 20.1999,-38.29777 13.6631,-14.94961 39.0705,-26.76357 65.6651,-30.53299 12.2688,-1.73894 39.2777,-0.64726 49.9803,2.02017 21.7909,5.43099 41.001,16.67507 52.6811,30.83532 13.6273,16.52099 20.4356,38.95824 20.4499,67.39411 l 0.01,11.66883 -81.25,0.45844 c -85.8919,0.48463 -90.8659,0.72161 -120.25,5.72934 -82.5226,14.06377 -135.9868,60.55715 -147.1482,127.96266 -2.0617,12.45123 -2.0556,37.43787 0.012,50.02378 8.3691,50.93768 38.1493,88.46791 88.2487,111.21461 16.9714,7.7056 44.477,14.247 70.2919,16.7171 13.7876,1.3192 53.5003,0.4786 66.0946,-1.3991 z M 607.8944,948.50026 c -21.7549,-4.10067 -39.8898,-14.7627 -49.0022,-28.80982 -6.273,-9.66991 -8.3616,-17.32102 -8.378,-30.69044 -0.016,-13.11867 1.1544,-18.35295 6.3733,-28.5 4.2902,-8.34134 14.9075,-19.41345 23.3827,-24.38428 6.8577,-4.02211 19.7523,-8.50238 31.062,-10.79254 7.0097,-1.41943 18.0386,-1.70848 77.7793,-2.03845 l 69.6114,-0.3845 -1.3987,8.09953 c -6.0216,34.86845 -24.0014,70.53657 -45.6907,90.64097 -14.5775,13.51227 -25.9771,19.56213 -47.1335,25.01417 -8.7082,2.24412 -12.5189,2.62235 -29.5,2.928 -14.0344,0.25261 -21.6317,-0.0508 -27.1056,-1.08264 z m 829.1641,45.30094 c 3.2673,-1.48228 40.7779,-28.95382 91,-66.64531 92.757,-69.6138 90.9944,-68.11216 94.9396,-80.88522 4.5554,-14.74869 0.5771,-31.24687 -9.921,-41.14245 -3.9793,-3.75086 -164.4788,-124.46288 -170.7526,-128.42337 -9.2357,-5.83023 -22.4334,-7.52564 -33.3778,-4.28777 -11.0899,3.28091 -21.5821,13.07686 -26.1441,24.40911 -2.243,5.57176 -2.2897,6.48767 -2.5993,50.92381 l -0.3152,45.25 -203.194,0.0119 c -217.6201,0.0127 -207.5231,-0.21599 -217.5861,4.9284 -15.0213,7.6792 -24.3073,26.13167 -21.2968,42.3196 3.3093,17.79483 16.4777,30.92712 33.8681,33.77525 3.5525,0.58182 84.2435,0.95555 207.0707,0.95909 l 201.25,0.006 v 43.39466 c 0,40.64646 0.1273,43.80694 2.0107,49.90451 3.8257,12.38636 13.6113,22.369 26.4023,26.93406 7.4612,2.66287 21.1251,1.97979 28.6455,-1.43203 z"
       id="path1" />
  </g>
</svg>
